<?xml version="1.0" encoding="UTF-8"?>
<!DOCTYPE svg PUBLIC "-//W3C//DTD SVG 1.1//EN" "http://www.w3.org/Graphics/SVG/1.1/DTD/svg11.dtd">
<!-- Creator: CorelDRAW 2018 (64-Bit) -->
<svg xmlns="http://www.w3.org/2000/svg" xml:space="preserve" width="116.656mm" height="138.619mm" version="1.1" style="shape-rendering:geometricPrecision; text-rendering:geometricPrecision; image-rendering:optimizeQuality; fill-rule:evenodd; clip-rule:evenodd"
viewBox="0 0 11665.64 13861.93"
 xmlns:xlink="http://www.w3.org/1999/xlink">
 <defs>
  <style type="text/css">
   <![CDATA[
    .str0 {stroke:black;stroke-width:47.74;stroke-linecap:round;stroke-linejoin:round;stroke-miterlimit:10}
    .fil0 {fill:none;fill-rule:nonzero}
   ]]>
  </style>
 </defs>
 <g id="Слой_x0020_1">
  <metadata id="CorelCorpID_0Corel-Layer"/>
  <g id="_2252236426432">
   <polyline class="fil0 str0" points="6954.82,8267.81 8076.83,8267.81 8076.83,8315.55 8450.83,8315.55 8450.83,8267.81 10885.82,8267.81 10885.82,8315.55 11267.78,8315.55 11267.78,8172.32 11641.77,8172.32 11641.77,9716.08 11641.77,11029.06 11267.78,11029.06 11267.78,10893.78 10885.82,10893.78 10885.82,11029.06 8450.83,11029.06 8450.83,10893.78 8076.83,10893.78 8076.83,11029.06 6954.82,11029.06 6954.82,8267.81 "/>
   <polyline class="fil0 str0" points="5808.95,11124.55 11172.29,11124.55 11172.29,13702.77 10885.82,13702.77 10885.82,13838.06 8450.83,13838.06 8450.83,13702.77 8076.83,13702.77 8076.83,13838.06 6954.82,13838.06 6954.82,13559.54 6724.05,13559.54 6724.05,13838.06 5808.95,13838.06 5808.95,11124.55 "/>
   <polyline class="fil0 str0" points="5713.46,13838.06 5713.46,11124.55 5450.87,11124.55 5450.87,10893.78 5713.46,10893.78 5713.46,10121.91 4798.36,10121.91 4798.36,11124.55 4567.59,11124.55 4567.59,10981.31 1989.36,10981.31 1989.36,11124.55 1615.35,11124.55 1615.35,10981.31 954.9,10981.31 954.9,11124.55 676.38,11124.55 676.38,13702.77 954.9,13702.77 954.9,13838.06 1615.35,13838.06 1615.35,13702.77 1989.36,13702.77 1989.36,13838.06 4567.59,13838.06 4567.59,13559.54 4798.36,13559.54 4798.36,13838.06 5713.46,13838.06 "/>
   <polyline class="fil0 str0" points="5713.46,10026.42 4567.59,10026.42 4567.59,10893.78 23.87,10893.78 23.87,8315.55 954.9,8315.55 954.9,8172.32 1615.35,8172.32 1615.35,8315.55 1989.36,8315.55 1989.36,8172.32 4567.59,8172.32 4567.59,9365.94 4798.36,9365.94 4798.36,8172.32 5713.46,8172.32 5713.46,10026.42 "/>
   <polyline class="fil0 str0" points="11641.77,2832.87 11267.78,2832.87 11267.78,2976.1 10885.82,2976.1 10885.82,2832.87 8450.83,2832.87 8450.83,2976.1 8076.83,2976.1 8076.83,2832.87 6954.82,2832.87 6954.82,5594.1 8076.83,5594.1 8076.83,5554.33 8450.83,5554.33 8450.83,5594.1 10885.82,5594.1 10885.82,5554.33 11267.78,5554.33 11267.78,5641.85 11641.77,5641.85 11641.77,2832.87 "/>
   <polyline class="fil0 str0" points="5713.46,5689.59 5713.46,3843.46 4567.59,3843.46 4567.59,2976.1 23.87,2976.1 23.87,5554.33 954.9,5554.33 954.9,5689.59 1615.35,5689.59 1615.35,5554.33 1989.36,5554.33 1989.36,5689.59 4567.59,5689.59 4567.59,4495.97 4798.36,4495.97 4798.36,5689.59 5713.46,5689.59 "/>
   <polyline class="fil0 str0" points="5713.46,3747.97 4798.36,3747.97 4798.36,2737.38 4567.59,2737.38 4567.59,2880.62 1989.36,2880.62 1989.36,2737.38 1615.35,2737.38 1615.35,2880.62 954.9,2880.62 954.9,2737.38 676.38,2737.38 676.38,167.11 954.9,167.11 954.9,23.87 1615.35,23.87 1615.35,167.11 1989.36,167.11 1989.36,23.87 4567.59,23.87 4567.59,302.39 4798.36,302.39 4798.36,23.87 5713.46,23.87 5713.46,2737.38 5450.87,2737.38 5450.87,2976.1 5713.46,2976.1 5713.46,3747.97 "/>
   <polyline class="fil0 str0" points="11172.29,167.11 11172.29,2737.38 5808.95,2737.38 5808.95,23.87 6724.05,23.87 6724.05,302.39 6954.82,302.39 6954.82,23.87 8076.83,23.87 8076.83,167.11 8450.83,167.11 8450.83,23.87 10885.82,23.87 10885.82,167.11 11172.29,167.11 "/>
   <polyline class="fil0 str0" points="5713.46,5785.08 4798.36,5785.08 4798.36,6135.21 4567.59,6135.21 4567.59,5785.08 676.38,5785.08 676.38,8076.83 4567.59,8076.83 4567.59,6795.69 4798.36,6795.69 4798.36,8076.83 5713.46,8076.83 5713.46,5785.08 "/>
  </g>
 </g>
</svg>
