<?xml version="1.0" encoding="UTF-8"?>
<!DOCTYPE svg PUBLIC "-//W3C//DTD SVG 1.1//EN" "http://www.w3.org/Graphics/SVG/1.1/DTD/svg11.dtd">
<!-- Creator: CorelDRAW 2018 (64-Bit) -->
<svg xmlns="http://www.w3.org/2000/svg" xml:space="preserve" width="250.535mm" height="129.251mm" version="1.1" style="shape-rendering:geometricPrecision; text-rendering:geometricPrecision; image-rendering:optimizeQuality; fill-rule:evenodd; clip-rule:evenodd"
viewBox="0 0 25053.54 12925.1"
 xmlns:xlink="http://www.w3.org/1999/xlink">
 <defs>
  <style type="text/css">
   <![CDATA[
    .str0 {stroke:black;stroke-width:20;stroke-miterlimit:22.9256}
    .fil0 {fill:none}
   ]]>
  </style>
 </defs>
 <g id="Слой_x0020_1">
  <metadata id="CorelCorpID_0Corel-Layer"/>
  <polygon class="fil0 str0" points="24742.49,4259.69 24742.49,4716.86 24761.16,4716.86 24761.16,4810.17 24742.49,4810.17 24742.49,5267.36 24761.16,5267.36 24761.16,5393.32 24761.16,5509.94 25031.73,5509.94 25031.73,6769.54 24761.16,6769.54 24761.16,6881.5 24574.54,6881.5 23384.93,6881.5 23202.98,6881.5 22615.17,6881.5 22433.23,6881.5 20865.73,6881.5 20679.14,6881.5 19489.51,6881.5 19307.58,6881.5 19307.58,6769.54 19307.58,6610.93 19307.58,6209.72 19307.58,5957.8 19307.58,5943.81 19307.58,5626.57 19307.58,5612.58 19307.58,5509.94 19307.58,5453.97 19032.33,5453.97 19032.33,4077.74 19307.58,4077.74 19307.58,4021.77 19307.58,3914.46 19307.58,3905.13 19307.58,3587.9 19307.58,3573.91 19307.58,3321.99 19307.58,2920.78 19307.58,2757.49 19307.58,2645.54 19489.51,2645.54 20679.14,2645.54 20865.73,2645.54 21206.3,2645.54 21220.29,2645.54 21467.54,2645.54 21481.54,2645.54 21938.73,2645.54 21952.72,2645.54 22199.98,2645.54 22213.98,2645.54 22433.23,2645.54 22615.17,2645.54 22675.83,2645.54 22689.82,2645.54 22937.07,2645.54 22946.4,2645.54 23202.98,2645.54 23384.93,2645.54 24574.54,2645.54 24761.16,2645.54 24761.16,2757.49 25031.73,2757.49 25031.73,4021.77 24761.16,4021.77 24761.16,4133.73 24761.16,4259.69 "/>
  <polygon class="fil0 str0" points="22011.26,7009.63 23204.52,7009.63 23387.01,7009.63 24584.96,7009.63 24767.46,7009.63 24767.46,7121.94 24767.46,7182.78 24748.74,7182.77 24748.74,7641.35 24767.46,7641.35 24767.46,7903.4 24767.46,8273.08 24767.46,8390.07 24767.46,8502.39 25043.54,8502.39 25043.54,9803.26 25043.54,9850.06 25043.54,11146.27 24767.46,11146.27 24767.46,11263.25 24767.46,11408.32 24767.46,11777.99 24767.46,12007.28 24748.74,12007.28 24748.74,12465.88 24767.46,12465.88 24767.46,12526.7 24767.46,12639.01 24584.96,12639.01 23387.01,12639.01 23237.26,12639.01 23237.26,12915.1 21973.82,12915.1 21973.82,12639.01 21824.07,12639.01 21697.73,12639.01 21683.69,12639.01 21346.78,12639.01 21332.73,12639.01 21150.23,12639.01 20963.05,12639.01 20874.15,12639.01 20860.12,12639.01 20518.51,12639.01 20504.46,12639.01 20275.18,12639.01 20275.18,12620.29 19816.58,12620.29 19816.58,12638.99 19769.79,12638.99 19587.29,12638.99 19587.29,12526.69 19587.29,11263.24 19587.29,11146.26 19587.29,9882.81 19587.29,9765.83 19587.29,9237.06 19587.29,9190.27 19587.29,8502.39 19587.29,8390.07 19587.29,7744.3 19587.29,7121.94 19587.29,7009.63 19769.8,7009.63 19769.8,7033.03 20963.05,7033.03 20963.05,7009.63 21150.23,7009.63 21150.23,7033.03 21824.07,7033.03 21824.07,7009.63 "/>
  <polygon class="fil0 str0" points="19442,7606.38 19442,8793.8 19442,8980.06 19442,9524.88 19442,9641.3 19442,10577.26 19442,10693.67 19442,11950.95 19442,12132.55 19442,12453.86 19442,12635.46 19325.58,12635.47 19269.7,12635.47 19269.71,12616.84 18813.37,12616.84 18813.37,12635.47 18580.54,12635.47 18571.23,12635.47 18231.3,12635.47 18217.33,12635.47 18068.32,12635.47 17951.91,12635.47 17951.91,12910.21 16694.63,12910.21 16694.63,12635.47 16582.87,12635.47 16522.33,12635.47 16522.33,12616.84 16065.99,12616.84 16065.99,12635.47 15977.52,12635.47 15977.52,12616.84 15516.51,12616.84 15516.51,12635.47 15460.63,12635.47 15348.87,12635.47 15348.87,12910.21 14086.96,12910.21 14086.96,12635.47 13975.2,12635.47 13826.18,12635.47 13812.22,12635.47 13472.28,12635.47 13458.32,12635.47 13230.15,12635.47 12773.8,12635.47 12717.92,12635.47 12601.51,12635.47 12601.51,12453.86 12601.51,12132.56 12601.51,11950.95 12601.51,10693.68 12601.51,10577.27 12601.51,9641.3 12601.51,9524.88 12601.51,8980.06 12601.51,8793.8 12601.51,7606.38 12601.51,7420.12 12717.92,7420.12 12797.09,7420.12 13118.39,7420.12 13188.24,7420.12 13504.88,7420.12 13574.73,7420.12 13896.03,7420.12 13975.2,7420.12 13975.2,7191.94 14194.06,7191.94 14208.02,7191.94 14520.02,7191.94 14533.98,7191.94 14752.85,7191.94 15209.18,7191.94 15404.76,7191.94 15404.76,6917.2 16638.75,6917.2 16638.75,7191.94 16834.33,7191.94 17290.67,7191.94 17509.53,7191.94 17523.5,7191.94 17835.49,7191.94 17849.45,7191.94 18068.32,7191.94 18068.32,7420.12 18147.48,7420.12 18468.79,7420.12 18538.64,7420.12 18855.26,7420.12 18925.11,7420.12 19246.43,7420.12 19325.58,7420.12 19442,7420.12 "/>
  <polygon class="fil0 str0" points="10537.92,7169.82 10850.89,7169.82 10864.89,7169.82 11084.44,7169.82 11084.44,7398.68 11163.86,7398.68 11486.15,7398.68 11556.22,7398.68 11873.84,7398.68 11943.91,7398.68 12266.21,7398.68 12345.62,7398.68 12462.4,7398.68 12462.4,7585.54 12462.4,8776.66 12462.4,8958.83 12462.4,9510.02 12462.4,9626.79 12462.4,10565.66 12462.4,10682.44 12462.4,11943.62 12462.4,12125.79 12462.4,12448.1 12462.4,12630.27 12345.62,12630.29 12289.57,12630.29 11831.81,12630.29 11598.26,12630.29 11588.92,12630.29 11247.94,12630.29 11233.91,12630.29 11084.44,12630.3 10967.66,12630.3 10967.66,12905.88 9706.48,12905.88 9706.48,12630.3 9594.37,12630.3 9533.64,12630.3 9533.63,12611.6 9075.87,12611.6 9075.87,12630.3 8987.13,12630.3 8987.13,12611.6 8524.69,12611.6 8524.69,12630.3 8468.64,12630.3 8351.86,12630.3 8351.86,12905.88 7090.67,12905.88 7090.67,12630.3 6978.57,12630.3 6829.09,12630.3 6815.08,12630.29 6474.09,12630.3 6460.09,12630.3 6231.2,12630.3 6231.2,12611.6 5773.43,12611.6 5773.44,12630.29 5717.39,12630.29 5600.61,12630.29 5600.61,12448.12 5600.61,12125.81 5600.61,11943.64 5600.61,10682.46 5600.61,10565.68 5600.61,9626.8 5600.61,9510.03 5600.61,8958.84 5600.61,8776.67 5600.61,7585.55 5600.61,7398.7 5717.39,7398.68 5796.8,7398.68 6119.1,7398.68 6184.48,7398.68 6506.78,7398.68 6576.85,7398.68 6899.15,7398.68 6978.57,7398.68 6978.57,7169.82 7193.44,7169.82 7207.45,7169.82 7525.09,7169.82 7539.1,7169.82 7758.64,7169.82 8216.4,7169.82 8412.58,7169.82 8412.58,6894.21 9650.42,6894.21 9650.42,7169.82 9846.61,7169.82 10304.36,7169.82 10523.91,7169.82 "/>
  <polygon class="fil0 str0" points="4093.51,7035.75 5283.88,7035.75 5283.88,7012.42 5470.6,7012.42 5470.6,7124.44 5470.6,7745.29 5470.6,8389.5 5470.6,8501.53 5470.6,9187.75 5470.6,9234.43 5470.6,9761.93 5470.6,9878.63 5470.6,11139.03 5470.6,11255.74 5470.6,12516.14 5470.6,12628.17 5283.88,12628.17 5237.19,12628.17 5237.18,12609.49 4779.71,12609.49 4779.71,12628.17 4550.98,12628.17 4536.96,12628.18 4196.19,12628.17 4186.86,12628.17 4093.51,12628.17 3911.45,12628.17 3724.72,12628.17 3710.71,12628.18 3374.61,12628.17 3360.6,12628.17 3234.56,12628.18 3085.19,12628.17 3085.19,12903.59 1824.8,12903.59 1824.8,12628.18 1675.41,12628.17 480.37,12628.17 298.31,12628.17 298.31,12516.14 298.31,12455.44 316.99,12455.45 316.99,11997.98 298.31,11997.98 298.31,11769.23 298.31,11400.46 298.31,11255.75 298.31,11139.03 22.9,11139.03 22.9,9841.3 22.9,9799.29 22.9,8501.55 298.31,8501.55 298.31,8389.51 298.31,8272.81 298.31,7904.02 298.31,7642.61 316.99,7642.61 316.99,7185.14 298.31,7185.14 298.31,7124.44 298.31,7012.42 480.37,7012.42 1675.41,7012.42 1857.46,7012.42 3047.85,7012.42 3234.56,7012.42 3234.56,7035.75 3911.45,7035.75 3911.45,7012.42 4093.51,7012.42 "/>
  <polygon class="fil0 str0" points="4150.22,10 5344.51,10 5527.17,10 5527.17,122.41 5527.17,206.71 5527.17,525.19 5527.17,595.44 5527.17,918.61 5527.17,988.86 5527.17,1307.33 5527.17,1391.63 5756.66,1391.63 5756.66,1607.07 5756.66,1621.13 5756.66,1953.66 5756.66,2173.78 5756.66,2632.77 5756.66,2829.47 6033,2829.47 6033,4070.6 5756.66,4070.6 5756.66,4267.31 5756.66,4726.29 5756.66,4941.73 5756.66,4955.78 5756.66,5274.27 5756.66,5288.32 5756.66,5508.42 5527.17,5508.42 5527.17,5588.05 5527.17,5911.21 5527.17,5976.79 5527.17,6299.95 5527.17,6370.21 5527.17,6693.37 5527.16,6772.97 5527.16,6885.38 5344.5,6885.38 4150.21,6885.38 3962.87,6885.38 3410.22,6885.38 3297.81,6885.38 2351.75,6885.38 2239.34,6885.38 974.8,6885.38 787.45,6885.38 468.98,6885.38 281.63,6885.38 281.64,6772.98 281.64,6716.78 281.64,6253.1 281.64,6023.62 281.64,5658.31 281.64,5508.42 281.64,5391.35 10,5391.35 10,4126.8 281.64,4126.8 281.64,4014.4 281.64,3953.51 300.38,3953.51 300.38,3494.53 281.64,3494.53 281.64,3400.85 300.38,3400.85 300.38,2941.88 281.64,2941.88 281.62,2885.68 281.64,2768.58 10,2768.58 10,1504.04 281.65,1504.04 281.65,1391.63 281.64,1241.77 281.64,871.75 281.64,642.28 300.38,642.28 300.38,183.29 281.66,183.29 281.66,122.41 281.66,10 469.01,10 787.48,10 974.83,10 2239.37,10 2351.76,10 3297.82,10 3410.23,10 3962.88,10 "/>
 </g>
</svg>
