<?xml version="1.0" encoding="UTF-8"?>
<!DOCTYPE svg PUBLIC "-//W3C//DTD SVG 1.1//EN" "http://www.w3.org/Graphics/SVG/1.1/DTD/svg11.dtd">
<!-- Creator: CorelDRAW 2018 (64-Bit) -->
<svg xmlns="http://www.w3.org/2000/svg" xml:space="preserve" width="250.486mm" height="128.772mm" version="1.1" style="shape-rendering:geometricPrecision; text-rendering:geometricPrecision; image-rendering:optimizeQuality; fill-rule:evenodd; clip-rule:evenodd"
viewBox="0 0 25048.64 12877.24"
 xmlns:xlink="http://www.w3.org/1999/xlink">
 <defs>
  <style type="text/css">
   <![CDATA[
    .str1 {stroke:#2B2A29;stroke-width:10;stroke-linecap:round;stroke-linejoin:round;stroke-miterlimit:10}
    .str4 {stroke:#2B2A29;stroke-width:10;stroke-linecap:round;stroke-linejoin:round;stroke-miterlimit:10}
    .str0 {stroke:#2B2A29;stroke-width:10;stroke-linecap:round;stroke-linejoin:round;stroke-miterlimit:10}
    .str5 {stroke:#2B2A29;stroke-width:10;stroke-linecap:round;stroke-linejoin:round;stroke-miterlimit:10}
    .str6 {stroke:#2B2A29;stroke-width:10;stroke-linecap:round;stroke-linejoin:round;stroke-miterlimit:10}
    .str2 {stroke:#2B2A29;stroke-width:10;stroke-linecap:round;stroke-linejoin:round;stroke-miterlimit:10}
    .str3 {stroke:#2B2A29;stroke-width:10;stroke-linecap:round;stroke-linejoin:round;stroke-miterlimit:10}
    .fil0 {fill:none;fill-rule:nonzero}
   ]]>
  </style>
 </defs>
 <g id="Слой_x0020_1">
  <metadata id="CorelCorpID_0Corel-Layer"/>
  <polyline class="fil0 str0" points="24582.61,8387 24582.61,8453.42 25043.63,8453.42 25043.63,9754.45 24766.24,9754.45 24766.24,9719.29 21972.73,9723.19 21972.73,8387 23203.44,8387 23203.44,8453.42 23387.07,8453.42 23387.07,8387 24582.61,8387 "/>
  <polyline class="fil0 str0" points="21972.73,9766.17 23203.44,9766.17 23203.44,9836.5 23387.07,9836.5 23387.07,9766.17 24582.61,9766.17 24582.61,9836.5 24766.24,9836.5 24766.24,9801.34 25043.63,9801.34 25043.63,11098.46 22500.18,11098.46 22500.18,10707.76 21972.73,10707.76 21972.73,9766.17 "/>
  <polyline class="fil0 str0" points="21972.73,10754.64 22453.29,10754.64 22453.29,11145.34 23203.44,11145.34 23203.44,11215.67 23387.07,11215.67 23387.07,11145.34 24582.61,11145.34 24582.61,11215.67 24719.36,11215.67 24719.36,12481.53 24582.61,12481.53 24582.61,12547.95 23387.07,12547.95 23387.07,12481.53 23203.44,12481.53 23203.44,12594.84 23238.6,12594.84 23238.6,12872.24 21972.73,12872.24 21972.73,12594.84 22007.9,12594.84 22007.9,12481.53 21824.27,12481.53 21824.27,12547.95 21144.46,12547.95 21144.46,11215.67 21972.73,11215.67 21972.73,10754.64 "/>
  <polyline class="fil0 str0" points="21097.57,12481.53 21097.57,11215.67 20995.99,11215.67 20995.99,9836.5 19624.63,9836.5 19624.63,11098.46 19765.28,11098.46 19765.28,11215.67 19624.63,11215.67 19624.63,12481.53 19765.28,12481.53 19765.28,12547.95 20960.82,12547.95 20960.82,12481.53 21097.57,12481.53 "/>
  <polyline class="fil0 str0" points="21902.41,8340.12 24719.36,8340.12 24719.36,7718.9 24352.1,7718.9 24352.1,7007.83 23387.07,7007.83 23387.07,7074.25 23203.44,7074.25 23203.44,7007.83 22007.9,7007.83 22007.9,7074.25 21824.27,7074.25 21824.27,7050.81 21304.64,7050.81 21304.64,7695.46 21902.41,7695.46 21902.41,8340.12 "/>
  <polyline class="fil0 str1" points="19321.11,12541.34 19321.11,12405.42 19391.02,12405.42 19391.02,12083.07 19321.11,12083.07 19321.11,11900.53 19391.02,11900.53 19391.02,10646.1 19251.21,10646.1 19251.21,10529.59 19391.02,10529.59 19391.02,10082.95 18062.79,10082.95 18062.79,10211.12 17950.16,10211.12 17950.16,10082.95 17573.44,10082.95 17573.44,10529.59 18062.79,10529.59 18062.79,10646.1 17996.76,10646.1 17996.76,11900.53 18062.79,11900.53 18062.79,12083.07 17996.76,12083.07 17996.76,12405.42 18062.79,12405.42 18062.79,12541.34 19321.11,12541.34 "/>
  <polyline class="fil0 str1" points="17950.16,12859.81 17950.16,10646.1 17526.84,10646.1 17526.84,10082.95 16621.93,10082.95 16621.93,10529.59 17208.37,10529.59 17208.37,10646.1 16621.93,10646.1 16621.93,11900.53 16691.84,11900.53 16691.84,12083.07 16621.93,12083.07 16621.93,12405.42 16691.84,12405.42 16691.84,12859.81 17950.16,12859.81 "/>
  <polyline class="fil0 str1" points="16579.21,12541.34 16579.21,10646.1 16404.44,10646.1 16404.44,10529.59 16579.21,10529.59 16579.21,10082.95 15456.82,10082.95 15456.82,10529.59 16085.98,10529.59 16085.98,10646.1 15456.82,10646.1 15456.82,12541.34 16579.21,12541.34 "/>
  <polyline class="fil0 str1" points="18062.79,10040.24 19391.02,10040.24 19391.02,9593.61 19251.21,9593.61 19251.21,9477.1 19391.02,9477.1 19391.02,8929.49 19321.11,8929.49 19321.11,8746.96 19391.02,8746.96 19391.02,7558.55 19321.11,7558.55 19321.11,7376.01 18062.79,7376.01 18062.79,10040.24 "/>
  <polyline class="fil0 str1" points="18020.07,9477.1 18020.07,8929.49 17950.16,8929.49 17950.16,8746.96 18020.07,8746.96 18020.07,7558.55 17950.16,7558.55 17950.16,7376.01 18020.07,7376.01 18020.07,7193.48 16645.23,7193.48 16645.23,7376.01 16691.84,7376.01 16691.84,7558.55 16668.54,7558.55 16668.54,8746.96 16691.84,8746.96 16691.84,8929.49 16668.54,8929.49 16668.54,9477.1 18020.07,9477.1 "/>
  <polyline class="fil0 str1" points="15367.49,9477.1 15367.49,8929.49 15344.19,8929.49 15344.19,8746.96 15367.49,8746.96 15367.49,7558.55 15344.19,7558.55 15344.19,7376.01 15410.22,7376.01 15410.22,7193.48 14015.96,7193.48 14015.96,7376.01 14085.87,7376.01 14085.87,7558.55 14015.96,7558.55 14015.96,8746.96 14085.87,8746.96 14085.87,8929.49 14015.96,8929.49 14015.96,9477.1 15367.49,9477.1 "/>
  <polyline class="fil0 str1" points="13969.36,10040.24 13969.36,7418.74 12714.93,7418.74 12714.93,7558.55 12645.02,7558.55 12645.02,8746.96 12714.93,8746.96 12714.93,8929.49 12645.02,8929.49 12645.02,9477.1 12780.94,9477.1 12780.94,9593.61 12645.02,9593.61 12645.02,10040.24 13969.36,10040.24 "/>
  <polyline class="fil0 str1" points="12645.02,10082.95 13969.36,10082.95 13969.36,10211.12 14085.87,10211.12 14085.87,10082.95 14462.59,10082.95 14462.59,10529.59 13969.36,10529.59 13969.36,10646.1 14039.26,10646.1 14039.26,11900.53 13969.36,11900.53 13969.36,12083.07 14039.26,12083.07 14039.26,12405.42 13969.36,12405.42 13969.36,12541.34 12714.93,12541.34 12714.93,12405.42 12645.02,12405.42 12645.02,12083.07 12714.93,12083.07 12714.93,11900.53 12645.02,11900.53 12645.02,10646.1 12780.94,10646.1 12780.94,10529.59 12645.02,10529.59 12645.02,10082.95 "/>
  <polyline class="fil0 str1" points="14509.2,10082.95 15410.22,10082.95 15410.22,10529.59 14827.66,10529.59 14827.66,10646.1 15410.22,10646.1 15410.22,11900.53 15344.19,11900.53 15344.19,12083.07 15410.22,12083.07 15410.22,12405.42 15344.19,12405.42 15344.19,12541.34 15344.19,12859.81 14085.87,12859.81 14085.87,10646.1 14509.2,10646.1 14509.2,10082.95 "/>
  <polyline class="fil0 str2" points="10587.93,10072.18 10587.93,10520.45 11079.07,10520.45 11079.07,10633.48 11012.81,10633.48 11012.81,11896.43 11079.07,11896.43 11079.07,12079.64 11012.81,12079.64 11012.81,12403.17 11079.07,12403.17 11079.07,12539.59 12342.02,12539.59 12342.02,12403.17 12412.18,12403.17 12412.18,12079.64 12342.02,12079.64 12342.02,11896.43 12412.18,11896.43 12412.18,10633.48 12275.75,10633.48 12275.75,10520.45 12412.18,10520.45 12412.18,10072.18 11079.07,10072.18 11079.07,10200.81 10966.03,10200.81 10966.03,10072.18 10587.93,10072.18 "/>
  <polyline class="fil0 str2" points="10966.03,10633.48 10966.03,12859.23 9703.09,12859.23 9703.09,12403.17 9632.92,12403.17 9632.92,12079.64 9703.09,12079.64 9703.09,11896.43 9632.92,11896.43 9632.92,10633.48 10221.51,10633.48 10221.51,10520.45 9632.92,10520.45 9632.92,10072.18 10541.15,10072.18 10541.15,10633.48 10966.03,10633.48 "/>
  <polyline class="fil0 str2" points="9590.04,10072.18 9590.04,10520.45 8958.57,10520.45 8958.57,10633.48 9590.04,10633.48 9590.04,12539.59 8463.53,12539.59 8463.53,10633.48 8635.05,10633.48 8635.05,10520.45 8463.53,10520.45 8463.53,10072.18 9590.04,10072.18 "/>
  <polyline class="fil0 str2" points="7512.43,10072.18 8416.76,10072.18 8416.76,10520.45 7832.06,10520.45 7832.06,10633.48 8416.76,10633.48 8416.76,11896.43 8350.49,11896.43 8350.49,12079.64 8416.76,12079.64 8416.76,12403.17 8350.49,12403.17 8350.49,12859.23 7087.54,12859.23 7087.54,10633.48 7512.43,10633.48 7512.43,10072.18 "/>
  <polyline class="fil0 str2" points="7087.54,10072.18 7465.65,10072.18 7465.65,10520.45 6970.61,10520.45 6970.61,10633.48 7040.77,10633.48 7040.77,11896.43 6970.61,11896.43 6970.61,12079.64 7040.77,12079.64 7040.77,12403.17 6970.61,12403.17 6970.61,12539.59 5711.57,12539.59 5711.57,12403.17 5641.4,12403.17 5641.4,12079.64 5711.57,12079.64 5711.57,11896.43 5641.4,11896.43 5641.4,10633.48 5777.83,10633.48 5777.83,10520.45 5641.4,10520.45 5641.4,10072.18 6970.61,10072.18 6970.61,10200.81 7087.54,10200.81 7087.54,10072.18 "/>
  <polyline class="fil0 str2" points="6970.61,10025.4 6970.61,7398.17 5711.57,7398.17 5711.57,7538.5 5641.4,7538.5 5641.4,8731.28 5711.57,8731.28 5711.57,8914.48 5641.4,8914.48 5641.4,9464.09 5777.83,9464.09 5777.83,9581.03 5641.4,9581.03 5641.4,10025.4 6970.61,10025.4 "/>
  <polyline class="fil0 str2" points="8373.88,9464.09 8373.88,8914.48 8350.49,8914.48 8350.49,8731.28 8373.88,8731.28 8373.88,7538.5 8350.49,7538.5 8350.49,7355.29 8397.26,7355.29 8397.26,7168.19 7017.38,7168.19 7017.38,7355.29 7087.54,7355.29 7087.54,7538.5 7017.38,7538.5 7017.38,8731.28 7087.54,8731.28 7087.54,8914.48 7017.38,8914.48 7017.38,9464.09 8373.88,9464.09 "/>
  <polyline class="fil0 str2" points="11036.19,9464.09 11036.19,8914.48 10966.03,8914.48 10966.03,8731.28 11036.19,8731.28 11036.19,7538.5 10966.03,7538.5 10966.03,7355.29 11036.19,7355.29 11036.19,7168.19 9632.92,7168.19 9632.92,7355.29 9703.09,7355.29 9703.09,7538.5 9679.7,7538.5 9679.7,8731.28 9703.09,8731.28 9703.09,8914.48 9679.7,8914.48 9679.7,9464.09 11036.19,9464.09 "/>
  <polyline class="fil0 str2" points="11079.07,10025.4 12412.18,10025.4 12412.18,9581.03 12275.75,9581.03 12275.75,9464.09 12412.18,9464.09 12412.18,8914.48 12342.02,8914.48 12342.02,8731.28 12412.18,8731.28 12412.18,7538.5 12342.02,7538.5 12342.02,7398.17 11079.07,7398.17 11079.07,10025.4 "/>
  <polyline class="fil0 str3" points="5416.73,12470.73 5416.73,11212.14 5280.35,11212.14 5280.35,11095.24 5416.73,11095.24 5416.73,9832.76 4052.94,9832.76 4052.94,11212.14 3947.73,11212.14 3947.73,12470.73 4088.01,12470.73 4088.01,12540.87 5280.35,12540.87 5280.35,12470.73 5416.73,12470.73 "/>
  <polyline class="fil0 str3" points="3904.87,11212.14 3904.87,12540.87 3226.87,12540.87 3226.87,12470.73 3043.74,12470.73 3043.74,12587.62 3078.81,12587.62 3078.81,12864.28 1816.33,12864.28 1816.33,12587.62 1851.39,12587.62 1851.39,12470.73 1664.36,12470.73 1664.36,12540.87 472.02,12540.87 472.02,12470.73 335.64,12470.73 335.64,11212.14 472.02,11212.14 472.02,11142 1664.36,11142 1664.36,11212.14 1851.39,11212.14 1851.39,11142 2595.63,11142 2595.63,10752.35 3078.81,10752.35 3078.81,11212.14 3904.87,11212.14 "/>
  <polyline class="fil0 str3" points="3078.81,10705.59 3078.81,9766.53 1851.39,9766.53 1851.39,9832.76 1664.36,9832.76 1664.36,9766.53 472.02,9766.53 472.02,9832.76 288.88,9832.76 288.88,9801.6 16.12,9801.6 16.12,11095.24 2548.87,11095.24 2548.87,10705.59 3078.81,10705.59 "/>
  <polyline class="fil0 str3" points="3078.81,9719.77 3078.81,8391.05 1851.39,8391.05 1851.39,8457.29 1664.36,8457.29 1664.36,8391.05 472.02,8391.05 472.02,8457.29 16.12,8457.29 16.12,9754.84 288.88,9754.84 288.88,9719.77 3078.81,9719.77 "/>
  <polyline class="fil0 str3" points="3145.04,8344.29 3145.04,7701.36 3741.21,7701.36 3741.21,7058.43 3226.87,7058.43 3226.87,7081.81 3043.74,7081.81 3043.74,7011.67 1851.39,7011.67 1851.39,7081.81 1664.36,7081.81 1664.36,7011.67 472.02,7011.67 472.02,7081.81 335.64,7081.81 335.64,8344.29 3145.04,8344.29 "/>
  <polyline class="fil0 str4" points="3409.71,4054.69 3960.88,4054.69 3960.88,4078.15 4144.6,4078.15 4144.6,4054.69 5340.74,4054.69 5340.74,4078.15 5528.37,4078.15 5528.37,4007.78 5712.09,4007.78 5712.09,4766.13 5712.09,5411.11 5528.37,5411.11 5528.37,5344.65 5340.74,5344.65 5340.74,5411.11 4144.6,5411.11 4144.6,5344.65 3960.88,5344.65 3960.88,5411.11 3409.71,5411.11 3409.71,4054.69 "/>
  <polyline class="fil0 str4" points="2846.82,5458.01 5481.47,5458.01 5481.47,6724.52 5340.74,6724.52 5340.74,6790.97 4144.6,6790.97 4144.6,6724.52 3960.88,6724.52 3960.88,6790.97 3409.71,6790.97 3409.71,6654.16 3296.35,6654.16 3296.35,6790.97 2846.82,6790.97 2846.82,5458.01 "/>
  <polyline class="fil0 str4" points="2799.91,6790.97 2799.91,5458.01 2670.92,5458.01 2670.92,5344.65 2799.91,5344.65 2799.91,4965.48 2350.39,4965.48 2350.39,5458.01 2237.02,5458.01 2237.02,5387.65 970.52,5387.65 970.52,5458.01 786.8,5458.01 786.8,5387.65 462.36,5387.65 462.36,5458.01 325.54,5458.01 325.54,6724.52 462.36,6724.52 462.36,6790.97 786.8,6790.97 786.8,6724.52 970.52,6724.52 970.52,6790.97 2237.02,6790.97 2237.02,6654.16 2350.39,6654.16 2350.39,6790.97 2799.91,6790.97 "/>
  <polyline class="fil0 str4" points="2799.91,4918.58 2237.02,4918.58 2237.02,5344.65 5.01,5344.65 5.01,4078.15 462.36,4078.15 462.36,4007.78 786.8,4007.78 786.8,4078.15 970.52,4078.15 970.52,4007.78 2237.02,4007.78 2237.02,4594.13 2350.39,4594.13 2350.39,4007.78 2799.91,4007.78 2799.91,4918.58 "/>
  <polyline class="fil0 str4" points="5712.09,1384.88 5528.37,1384.88 5528.37,1455.24 5340.74,1455.24 5340.74,1384.88 4144.6,1384.88 4144.6,1455.24 3960.88,1455.24 3960.88,1384.88 3409.71,1384.88 3409.71,2741.28 3960.88,2741.28 3960.88,2721.74 4144.6,2721.74 4144.6,2741.28 5340.74,2741.28 5340.74,2721.74 5528.37,2721.74 5528.37,2764.73 5712.09,2764.73 5712.09,1384.88 "/>
  <polyline class="fil0 str4" points="2799.91,2788.19 2799.91,1881.31 2237.02,1881.31 2237.02,1455.24 5.01,1455.24 5.01,2721.74 462.36,2721.74 462.36,2788.19 786.8,2788.19 786.8,2721.74 970.52,2721.74 970.52,2788.19 2237.02,2788.19 2237.02,2201.84 2350.39,2201.84 2350.39,2788.19 2799.91,2788.19 "/>
  <polyline class="fil0 str4" points="2799.91,1834.4 2350.39,1834.4 2350.39,1337.97 2237.02,1337.97 2237.02,1408.33 970.52,1408.33 970.52,1337.97 786.8,1337.97 786.8,1408.33 462.36,1408.33 462.36,1337.97 325.54,1337.97 325.54,75.37 462.36,75.37 462.36,5.01 786.8,5.01 786.8,75.37 970.52,75.37 970.52,5.01 2237.02,5.01 2237.02,141.83 2350.39,141.83 2350.39,5.01 2799.91,5.01 2799.91,1337.97 2670.92,1337.97 2670.92,1455.24 2799.91,1455.24 2799.91,1834.4 "/>
  <polyline class="fil0 str4" points="5481.47,75.37 5481.47,1337.97 2846.82,1337.97 2846.82,5.01 3296.35,5.01 3296.35,141.83 3409.71,141.83 3409.71,5.01 3960.88,5.01 3960.88,75.37 4144.6,75.37 4144.6,5.01 5340.74,5.01 5340.74,75.37 5481.47,75.37 "/>
  <polyline class="fil0 str4" points="2799.91,2835.1 2350.39,2835.1 2350.39,3007.09 2237.02,3007.09 2237.02,2835.1 325.54,2835.1 325.54,3960.88 2237.02,3960.88 2237.02,3331.54 2350.39,3331.54 2350.39,3960.88 2799.91,3960.88 2799.91,2835.1 "/>
  <polyline class="fil0 str5" points="25027.9,2711.13 24570.08,2711.13 24570.08,2642.71 23379.52,2642.71 23379.52,2711.13 23195.4,2711.13 23195.4,2642.71 22611.94,2642.71 22611.94,2711.13 22427.82,2711.13 22427.82,2642.71 21821.96,2642.71 21821.96,3970.12 25027.9,3970.12 25027.9,2711.13 "/>
  <polyline class="fil0 str5" points="24708.17,4084.57 24570.08,4084.57 24570.08,4016.15 23379.52,4016.15 23379.52,4084.57 23195.4,4084.57 23195.4,4016.15 22577.1,4016.15 22577.1,5413.23 23195.4,5413.23 23195.4,5344.8 24708.17,5344.8 24708.17,4084.57 "/>
  <polyline class="fil0 str5" points="25027.9,5459.26 24570.08,5459.26 24570.08,5390.83 23379.52,5390.83 23379.52,5459.26 20711.02,5459.26 20711.02,5424.42 19485.62,5424.42 19485.62,5459.26 19347.53,5459.26 19347.53,6719.49 19485.62,6719.49 19485.62,6787.91 20676.18,6787.91 20676.18,6719.49 20859.06,6719.49 20859.06,6787.91 22427.82,6787.91 22427.82,6719.49 22611.94,6719.49 22611.94,6787.91 23195.4,6787.91 23195.4,6719.49 23379.52,6719.49 23379.52,6787.91 24570.08,6787.91 24570.08,6719.49 25027.9,6719.49 25027.9,5459.26 "/>
  <polyline class="fil0 str6" points="21775.93,2642.71 20859.06,2642.71 20859.06,2711.13 20676.18,2711.13 20676.18,2642.71 19485.62,2642.71 19485.62,2711.13 19347.53,2711.13 19347.53,3970.12 19485.62,3970.12 19485.62,4039.79 20711.02,4039.79 20711.02,3970.12 21775.93,3970.12 21775.93,2642.71 "/>
 </g>
</svg>
